<svg width="204" height="71" viewBox="0 0 204 71" fill="none" xmlns="http://www.w3.org/2000/svg">
<rect width="204" height="71" fill="#0C0C0C"/>
<path d="M16.2 48.9L16.1077 48.9395L16.112 48.9474L16.2 48.9ZM17.4 49.8L17.3718 49.8959L17.3732 49.8964L17.4 49.8ZM32.45 43.7L32.55 43.7142V43.7H32.45ZM32.7 43.6L32.6804 43.6981L32.6901 43.7H32.7V43.6ZM33 43.75L33.1 43.7614V43.75H33ZM32.4 50.85L32.4707 50.9207L32.4757 50.9157L32.48 50.91L32.4 50.85ZM11.65 50.15L11.6245 50.0533L11.6232 50.0536L11.65 50.15ZM12.9 49.2L12.8093 49.1577L12.8081 49.1606L12.9 49.2ZM12.9 21.6L12.8079 21.6395L12.8106 21.6447L12.9 21.6ZM11.65 20.65L11.6183 20.7451L11.6246 20.7467L11.65 20.65ZM8.8 19.75L8.80204 19.65H8.8V19.75ZM11.25 19.8L11.2548 19.7001L11.252 19.7L11.25 19.8ZM18 19.8L17.9979 19.7L17.9952 19.7001L18 19.8ZM20.35 19.75V19.65L20.3479 19.65L20.35 19.75ZM17.45 20.65L17.4768 20.7464L17.4801 20.7454L17.45 20.65ZM16.2 21.65L16.1093 21.6077L16.1081 21.6106L16.2 21.65ZM15.8 46.75C15.8 47.7202 15.8999 48.4535 16.1081 48.9394L16.2919 48.8606C16.1001 48.4131 16 47.7132 16 46.75H15.8ZM16.112 48.9474C16.3604 49.4089 16.785 49.7234 17.3718 49.8959L17.4282 49.7041C16.8817 49.5433 16.5062 49.2578 16.288 48.8526L16.112 48.9474ZM17.3732 49.8964C17.9869 50.0668 18.9316 50.15 20.2 50.15V49.95C18.9351 49.95 18.0131 49.8665 17.4268 49.7036L17.3732 49.8964ZM20.2 50.15H26.6V49.95H20.2V50.15ZM26.6 50.15C28.2734 50.15 29.6143 49.6122 30.611 48.5303C31.605 47.4514 32.2475 45.8416 32.549 43.714L32.351 43.686C32.0525 45.7918 31.42 47.3569 30.464 48.3947C29.5107 49.4294 28.2266 49.95 26.6 49.95V50.15ZM32.55 43.7C32.55 43.6887 32.5523 43.6875 32.5504 43.6905C32.548 43.6943 32.5456 43.6945 32.5496 43.6928C32.5633 43.6874 32.6017 43.6823 32.6804 43.6981L32.7196 43.5019C32.6316 43.4843 32.545 43.4793 32.4754 43.5072C32.4377 43.5222 32.404 43.5473 32.3808 43.5845C32.3581 43.6209 32.35 43.6613 32.35 43.7H32.55ZM32.7 43.7C32.7949 43.7 32.8512 43.7124 32.8803 43.7269C32.8934 43.7335 32.8973 43.7387 32.898 43.7398C32.8984 43.7404 32.9 43.7425 32.9 43.75H33.1C33.1 43.7075 33.0891 43.6659 33.0645 43.6289C33.0402 43.5926 33.0066 43.5665 32.9697 43.5481C32.8988 43.5126 32.8051 43.5 32.7 43.5V43.7ZM32.9006 43.7387C32.6004 46.3739 32.45 48.5447 32.45 50.25H32.65C32.65 48.5553 32.7996 46.3927 33.0994 43.7613L32.9006 43.7387ZM32.45 50.25C32.45 50.5071 32.4013 50.6816 32.32 50.79L32.48 50.91C32.5987 50.7517 32.65 50.5263 32.65 50.25H32.45ZM32.3293 50.7793C32.2967 50.8119 32.2407 50.843 32.1507 50.8655C32.0614 50.8878 31.9452 50.9 31.8 50.9V51.1C31.9548 51.1 32.0886 51.0872 32.1993 51.0595C32.3093 51.032 32.4033 50.9881 32.4707 50.9207L32.3293 50.7793ZM31.8 50.9H8.8V51.1H31.8V50.9ZM8.8 50.9C8.83309 50.9 8.83218 50.9303 8.81987 50.8934C8.80841 50.859 8.8 50.7971 8.8 50.7H8.6C8.6 50.8029 8.60825 50.891 8.63013 50.9566C8.65115 51.0197 8.70024 51.1 8.8 51.1V50.9ZM8.8 50.7C8.8 50.6029 8.80841 50.541 8.81987 50.5066C8.83218 50.4697 8.83309 50.5 8.8 50.5V50.3C8.70024 50.3 8.65115 50.3803 8.63013 50.4434C8.60825 50.509 8.6 50.5971 8.6 50.7H8.8ZM8.8 50.5C10.1015 50.5 11.0629 50.4169 11.6768 50.2464L11.6232 50.0536C11.0371 50.2165 10.0985 50.3 8.8 50.3V50.5ZM11.6754 50.2467C12.3292 50.0747 12.7764 49.7423 12.9919 49.2394L12.8081 49.1606C12.6236 49.5911 12.2375 49.892 11.6246 50.0533L11.6754 50.2467ZM12.9906 49.2423C13.2333 48.7223 13.35 47.9546 13.35 46.95H13.15C13.15 47.9454 13.0334 48.6777 12.8094 49.1577L12.9906 49.2423ZM13.35 46.95V23.8H13.15V46.95H13.35ZM13.35 23.8C13.35 22.7962 13.2335 22.0435 12.9894 21.5553L12.8106 21.6447C13.0331 22.0899 13.15 22.8038 13.15 23.8H13.35ZM12.9919 21.5606C12.7764 21.0577 12.3292 20.7253 11.6754 20.5533L11.6246 20.7467C12.2375 20.908 12.6236 21.2089 12.8081 21.6394L12.9919 21.5606ZM11.6816 20.5551C11.0655 20.3498 10.1019 20.25 8.8 20.25V20.45C10.0981 20.45 11.0345 20.5502 11.6184 20.7449L11.6816 20.5551ZM8.8 20.25C8.83309 20.25 8.83218 20.2803 8.81987 20.2434C8.80841 20.209 8.8 20.1471 8.8 20.05H8.6C8.6 20.1529 8.60825 20.241 8.63013 20.3066C8.65115 20.3697 8.70024 20.45 8.8 20.45V20.25ZM8.8 20.05C8.8 19.9529 8.80841 19.891 8.81987 19.8566C8.83218 19.8197 8.83309 19.85 8.8 19.85V19.65C8.70024 19.65 8.65115 19.7303 8.63013 19.7934C8.60825 19.859 8.6 19.9471 8.6 20.05H8.8ZM8.79796 19.85L11.248 19.9L11.252 19.7L8.80204 19.65L8.79796 19.85ZM11.2452 19.8999C12.6458 19.9666 13.7477 20 14.55 20V19.8C13.7523 19.8 12.6542 19.7667 11.2548 19.7001L11.2452 19.8999ZM14.55 20C15.4522 20 16.6039 19.9666 18.0048 19.8999L17.9952 19.7001C16.5961 19.7667 15.4478 19.8 14.55 19.8V20ZM18.0021 19.9L20.3521 19.85L20.3479 19.65L17.9979 19.7L18.0021 19.9ZM20.35 19.85C20.3169 19.85 20.3178 19.8197 20.3301 19.8566C20.3416 19.891 20.35 19.9529 20.35 20.05H20.55C20.55 19.9471 20.5417 19.859 20.5199 19.7934C20.4988 19.7303 20.4498 19.65 20.35 19.65V19.85ZM20.35 20.05C20.35 20.1471 20.3416 20.209 20.3301 20.2434C20.3178 20.2803 20.3169 20.25 20.35 20.25V20.45C20.4498 20.45 20.4988 20.3697 20.5199 20.3066C20.5417 20.241 20.55 20.1529 20.55 20.05H20.35ZM20.35 20.25C19.0476 20.25 18.0683 20.3499 17.4199 20.5546L17.4801 20.7454C18.0983 20.5501 19.0524 20.45 20.35 20.45V20.25ZM17.4232 20.5536C16.7991 20.727 16.3568 21.0776 16.1094 21.6077L16.2906 21.6923C16.5099 21.2224 16.9009 20.9063 17.4768 20.7463L17.4232 20.5536ZM16.1081 21.6106C15.8998 22.0967 15.8 22.847 15.8 23.85H16C16 22.853 16.1003 22.1366 16.2919 21.6894L16.1081 21.6106ZM15.8 23.85V46.75H16V23.85H15.8ZM61.0637 21.5L60.9881 21.5657L60.9913 21.569L61.0637 21.5ZM57.8637 19.75L57.8661 19.65H57.8637V19.75ZM59.9637 19.8L59.9695 19.7001L59.9661 19.7L59.9637 19.8ZM65.1137 19.8L65.1112 19.6999L65.107 19.7002L65.1137 19.8ZM67.1637 19.75V19.65L67.1612 19.65L67.1637 19.75ZM64.1637 21.5L64.2394 21.5654L64.2408 21.5637L64.1637 21.5ZM60.0637 48.4L59.9919 48.3304L59.9919 48.3304L60.0637 48.4ZM45.1137 50.2L45.0658 50.2878L45.067 50.2885L45.1137 50.2ZM40.8637 46L40.7763 46.0486L40.7763 46.0486L40.8637 46ZM39.0137 21.6L38.9216 21.6395L38.9242 21.6447L39.0137 21.6ZM37.7637 20.65L37.732 20.7451L37.7382 20.7467L37.7637 20.65ZM34.9137 19.75L34.9158 19.65H34.9137V19.75ZM37.3137 19.8L37.3184 19.7001L37.3158 19.7L37.3137 19.8ZM44.1137 19.8L44.1115 19.7L44.1089 19.7001L44.1137 19.8ZM46.4137 19.75V19.65L46.4115 19.65L46.4137 19.75ZM43.5637 20.65L43.532 20.5551L43.532 20.5551L43.5637 20.65ZM42.3137 21.7L42.223 21.6577L42.2218 21.6606L42.3137 21.7ZM44.7637 47.05L44.6878 47.1152L44.6883 47.1158L44.7637 47.05ZM59.5637 47.35L59.6382 47.4167L59.6388 47.416L59.5637 47.35ZM62.2137 25C62.2137 23.3886 61.8616 22.1911 61.136 21.431L60.9913 21.569C61.6657 22.2755 62.0137 23.4114 62.0137 25H62.2137ZM61.1391 21.4344C60.4463 20.6376 59.3461 20.25 57.8637 20.25V20.45C59.3146 20.45 60.3477 20.8291 60.9882 21.5656L61.1391 21.4344ZM57.8637 20.25C57.8562 20.25 57.8541 20.2484 57.8535 20.248C57.8523 20.2473 57.8472 20.2434 57.8406 20.2303C57.8261 20.2012 57.8137 20.1449 57.8137 20.05H57.6137C57.6137 20.1551 57.6263 20.2488 57.6617 20.3197C57.6802 20.3566 57.7063 20.3902 57.7426 20.4145C57.7795 20.4391 57.8212 20.45 57.8637 20.45V20.25ZM57.8137 20.05C57.8137 19.9551 57.8261 19.8988 57.8406 19.8697C57.8472 19.8566 57.8523 19.8527 57.8535 19.852C57.8541 19.8516 57.8562 19.85 57.8637 19.85V19.65C57.8212 19.65 57.7795 19.6609 57.7426 19.6855C57.7063 19.7098 57.6802 19.7434 57.6617 19.7803C57.6263 19.8512 57.6137 19.9449 57.6137 20.05H57.8137ZM57.8613 19.85L59.9613 19.9L59.9661 19.7L57.8661 19.65L57.8613 19.85ZM59.9578 19.8998C61.0921 19.9665 62.0109 20 62.7137 20V19.8C62.0165 19.8 61.102 19.7668 59.9695 19.7002L59.9578 19.8998ZM62.7137 20C63.3169 20 64.1194 19.9665 65.1203 19.8998L65.107 19.7002C64.108 19.7668 63.3105 19.8 62.7137 19.8V20ZM65.1161 19.9L67.1661 19.85L67.1612 19.65L65.1112 19.7L65.1161 19.9ZM67.1637 19.85C67.1306 19.85 67.1315 19.8197 67.1438 19.8566C67.1553 19.891 67.1637 19.9529 67.1637 20.05H67.3637C67.3637 19.9471 67.3554 19.859 67.3335 19.7934C67.3125 19.7303 67.2634 19.65 67.1637 19.65V19.85ZM67.1637 20.05C67.1637 20.1471 67.1553 20.209 67.1438 20.2434C67.1315 20.2803 67.1306 20.25 67.1637 20.25V20.45C67.2634 20.45 67.3125 20.3697 67.3335 20.3066C67.3554 20.241 67.3637 20.1529 67.3637 20.05H67.1637ZM67.1637 20.25C65.779 20.25 64.7453 20.6389 64.0866 21.4363L64.2408 21.5637C64.8487 20.8278 65.8151 20.45 67.1637 20.45V20.25ZM64.088 21.4346C63.4315 22.1947 63.1137 23.3905 63.1137 25H63.3137C63.3137 23.4095 63.6291 22.2719 64.2394 21.5654L64.088 21.4346ZM63.1137 25V39.3H63.3137V25H63.1137ZM63.1137 39.3C63.1137 43.1819 62.0689 46.1874 59.9919 48.3304L60.1355 48.4696C62.2584 46.2793 63.3137 43.2181 63.3137 39.3H63.1137ZM59.9919 48.3304C57.9141 50.4741 55.1086 51.55 51.5637 51.55V51.75C55.1521 51.75 58.0132 50.6592 60.1355 48.4696L59.9919 48.3304ZM51.5637 51.55C49.1102 51.55 46.9768 51.0693 45.1603 50.1115L45.067 50.2885C46.9172 51.264 49.0838 51.75 51.5637 51.75V51.55ZM45.1616 50.1122C43.3446 49.1211 41.9418 47.7346 40.9511 45.9514L40.7763 46.0486C41.7856 47.8654 43.2161 49.2789 45.0658 50.2878L45.1616 50.1122ZM40.9511 45.9514C39.9605 44.1684 39.4637 42.1022 39.4637 39.75H39.2637C39.2637 42.1311 39.7668 44.2316 40.7763 46.0486L40.9511 45.9514ZM39.4637 39.75V23.8H39.2637V39.75H39.4637ZM39.4637 23.8C39.4637 22.7962 39.3472 22.0435 39.1031 21.5553L38.9242 21.6447C39.1468 22.0899 39.2637 22.8038 39.2637 23.8H39.4637ZM39.1056 21.5606C38.8901 21.0577 38.4428 20.7253 37.7891 20.5533L37.7382 20.7467C38.3512 20.908 38.7373 21.2089 38.9218 21.6394L39.1056 21.5606ZM37.7953 20.5551C37.1792 20.3498 36.2156 20.25 34.9137 20.25V20.45C36.2118 20.45 37.1482 20.5502 37.732 20.7449L37.7953 20.5551ZM34.9137 20.25C34.9468 20.25 34.9459 20.2803 34.9335 20.2434C34.9221 20.209 34.9137 20.1471 34.9137 20.05H34.7137C34.7137 20.1529 34.7219 20.241 34.7438 20.3066C34.7648 20.3697 34.8139 20.45 34.9137 20.45V20.25ZM34.9137 20.05C34.9137 19.9529 34.9221 19.891 34.9335 19.8566C34.9459 19.8197 34.9468 19.85 34.9137 19.85V19.65C34.8139 19.65 34.7648 19.7303 34.7438 19.7934C34.7219 19.859 34.7137 19.9471 34.7137 20.05H34.9137ZM34.9116 19.85L37.3116 19.9L37.3158 19.7L34.9158 19.65L34.9116 19.85ZM37.3089 19.8999C38.7096 19.9666 39.828 20 40.6637 20V19.8C39.8326 19.8 38.7178 19.7667 37.3184 19.7001L37.3089 19.8999ZM40.6637 20C41.5659 20 42.7176 19.9666 44.1184 19.8999L44.1089 19.7001C42.7097 19.7667 41.5615 19.8 40.6637 19.8V20ZM44.1158 19.9L46.4158 19.85L46.4115 19.65L44.1115 19.7L44.1158 19.9ZM46.4137 19.85C46.4212 19.85 46.4233 19.8516 46.4238 19.852C46.425 19.8527 46.4302 19.8566 46.4367 19.8697C46.4513 19.8988 46.4637 19.9551 46.4637 20.05H46.6637C46.6637 19.9449 46.6511 19.8512 46.6156 19.7803C46.5972 19.7434 46.5711 19.7098 46.5348 19.6855C46.4978 19.6609 46.4562 19.65 46.4137 19.65V19.85ZM46.4637 20.05C46.4637 20.1449 46.4513 20.2012 46.4367 20.2303C46.4302 20.2434 46.425 20.2473 46.4238 20.248C46.4233 20.2484 46.4212 20.25 46.4137 20.25V20.45C46.4562 20.45 46.4978 20.4391 46.5348 20.4145C46.5711 20.3902 46.5972 20.3566 46.6156 20.3197C46.6511 20.2488 46.6637 20.1551 46.6637 20.05H46.4637ZM46.4137 20.25C45.1118 20.25 44.1482 20.3498 43.532 20.5551L43.5953 20.7449C44.1792 20.5502 45.1156 20.45 46.4137 20.45V20.25ZM43.532 20.5551C42.9102 20.7624 42.4697 21.1291 42.2231 21.6577L42.4043 21.7423C42.6243 21.2709 43.0172 20.9376 43.5953 20.7449L43.532 20.5551ZM42.2218 21.6606C42.0134 22.1467 41.9137 22.897 41.9137 23.9H42.1137C42.1137 22.903 42.2139 22.1866 42.4056 21.7394L42.2218 21.6606ZM41.9137 23.9V38H42.1137V23.9H41.9137ZM41.9137 38C41.9137 41.9147 42.8338 44.9578 44.6878 47.1152L44.8395 46.9848C43.0269 44.8756 42.1137 41.8853 42.1137 38H41.9137ZM44.6883 47.1158C46.5442 49.2416 49.1406 50.3 52.4637 50.3V50.1C49.1867 50.1 46.6498 49.0584 44.839 46.9842L44.6883 47.1158ZM52.4637 50.3C55.5196 50.3 57.9156 49.3419 59.6382 47.4167L59.4891 47.2833C57.8117 49.1581 55.4745 50.1 52.4637 50.1V50.3ZM59.6388 47.416C61.3594 45.4593 62.2137 42.7664 62.2137 39.35H62.0137C62.0137 42.7336 61.168 45.3741 59.4886 47.284L59.6388 47.416ZM62.2137 39.35V25H62.0137V39.35H62.2137ZM97.977 50.95L97.9836 50.8501L97.9788 50.85L97.977 50.95ZM95.327 50.9L95.3288 50.8L95.3256 50.8L95.327 50.9ZM91.577 50.95L91.5756 50.8499L91.5714 50.8502L91.577 50.95ZM91.277 50.2L91.3064 50.2956L91.3064 50.2956L91.277 50.2ZM91.477 48.45L91.3935 48.5051L91.3947 48.5069L91.477 48.45ZM83.727 36.7L83.8104 36.6449L83.7304 36.5235L83.6457 36.6418L83.727 36.7ZM76.777 46.4L76.6957 46.3417L76.6946 46.3432L76.777 46.4ZM76.577 50.95L76.5836 50.8501L76.5784 50.85L76.577 50.95ZM73.227 50.9L73.2284 50.7999L73.2245 50.8L73.227 50.9ZM71.177 50.95L71.1745 50.8498L71.1679 50.8504L71.177 50.95ZM72.677 49.4L72.73 49.4848L72.7318 49.4836L72.677 49.4ZM75.727 46.4L75.8072 46.4597L75.8077 46.4589L75.727 46.4ZM83.277 36.05L83.3577 36.1089L83.3987 36.0527L83.3603 35.9948L83.277 36.05ZM75.227 23.9L75.3103 23.8448L75.3102 23.8445L75.227 23.9ZM72.627 21.15L72.5745 21.2352L72.5745 21.2352L72.627 21.15ZM71.427 19.85L71.4193 19.9498L71.4242 19.95L71.427 19.85ZM73.227 19.9L73.2242 20H73.227V19.9ZM77.227 19.8L77.225 19.7L77.2228 19.7001L77.227 19.8ZM79.827 19.75V19.65L79.825 19.65L79.827 19.75ZM77.677 20.6L77.7064 20.6958L77.7129 20.6933L77.677 20.6ZM77.477 22.35L77.3928 22.4041L77.3937 22.4055L77.477 22.35ZM85.077 33.75L84.9937 33.8055L85.0744 33.9264L85.1585 33.8079L85.077 33.75ZM91.427 24.8L91.5085 24.8579L91.5094 24.8566L91.427 24.8ZM89.727 19.75L89.7292 19.65H89.727V19.75ZM91.977 19.8L91.9822 19.7001L91.9792 19.7L91.977 19.8ZM97.377 19.8L97.3742 19.6999L97.3687 19.7003L97.377 19.8ZM99.177 19.75V19.65L99.1742 19.65L99.177 19.75ZM92.477 24.85L92.3963 24.7909L92.3963 24.7909L92.477 24.85ZM85.477 34.4L85.3963 34.3409L85.355 34.3973L85.3937 34.4555L85.477 34.4ZM93.777 46.85L93.8608 46.7955L93.8602 46.7945L93.777 46.85ZM96.427 49.65L96.3759 49.7361L96.3797 49.7381L96.427 49.65ZM100.027 50.5C99.9939 50.5 99.9948 50.4697 100.007 50.5066C100.019 50.541 100.027 50.6029 100.027 50.7H100.227C100.227 50.5971 100.219 50.509 100.197 50.4434C100.176 50.3803 100.127 50.3 100.027 50.3V50.5ZM100.027 50.7C100.027 50.7971 100.019 50.859 100.007 50.8934C99.9948 50.9303 99.9939 50.9 100.027 50.9V51.1C100.127 51.1 100.176 51.0197 100.197 50.9566C100.219 50.891 100.227 50.8029 100.227 50.7H100.027ZM100.027 50.9C99.1612 50.9 98.4804 50.8833 97.9836 50.8502L97.9703 51.0498C98.4735 51.0833 99.1594 51.1 100.027 51.1V50.9ZM97.9788 50.85L95.3288 50.8L95.3251 51L97.9751 51.05L97.9788 50.85ZM95.3256 50.8L91.5756 50.85L91.5783 51.05L95.3283 51L95.3256 50.8ZM91.5714 50.8502C90.9741 50.8833 90.1595 50.9 89.127 50.9V51.1C90.161 51.1 90.9798 51.0833 91.5825 51.0498L91.5714 50.8502ZM89.127 50.9C89.16 50.9 89.1591 50.9303 89.1468 50.8934C89.1354 50.859 89.127 50.7971 89.127 50.7H88.927C88.927 50.8029 88.9352 50.891 88.9571 50.9566C88.9781 51.0197 89.0272 51.1 89.127 51.1V50.9ZM89.127 50.7C89.127 50.6029 89.1354 50.541 89.1468 50.5066C89.1591 50.4697 89.16 50.5 89.127 50.5V50.3C89.0272 50.3 88.9781 50.3803 88.9571 50.4434C88.9352 50.509 88.927 50.5971 88.927 50.7H89.127ZM89.127 50.5C90.1279 50.5 90.8576 50.4337 91.3064 50.2956L91.2475 50.1044C90.8296 50.233 90.126 50.3 89.127 50.3V50.5ZM91.3064 50.2956C91.5331 50.2258 91.7134 50.1269 91.8377 49.993C91.9641 49.8569 92.027 49.6906 92.027 49.5H91.827C91.827 49.6427 91.7815 49.7597 91.6912 49.857C91.5988 49.9564 91.4541 50.0409 91.2475 50.1044L91.3064 50.2956ZM92.027 49.5C92.027 49.2011 91.8613 48.8295 91.5592 48.3931L91.3947 48.5069C91.6926 48.9372 91.827 49.2656 91.827 49.5H92.027ZM91.5604 48.3949L83.8104 36.6449L83.6435 36.7551L91.3935 48.5051L91.5604 48.3949ZM83.6457 36.6418L76.6957 46.3418L76.8582 46.4582L83.8082 36.7582L83.6457 36.6418ZM76.6946 46.3432C76.0257 47.3132 75.677 48.118 75.677 48.75H75.877C75.877 48.182 76.1949 47.4201 76.8593 46.4568L76.6946 46.3432ZM75.677 48.75C75.677 49.041 75.7444 49.3003 75.8824 49.5243C76.0203 49.7481 76.2253 49.9312 76.4919 50.0755C77.0221 50.3623 77.8045 50.5 78.827 50.5V50.3C77.816 50.3 77.0735 50.1627 76.587 49.8995C76.3453 49.7688 76.169 49.6081 76.0527 49.4194C75.9366 49.231 75.877 49.009 75.877 48.75H75.677ZM78.827 50.5C78.8345 50.5 78.8366 50.5016 78.8371 50.502C78.8383 50.5027 78.8434 50.5066 78.85 50.5197C78.8646 50.5488 78.877 50.6051 78.877 50.7H79.077C79.077 50.5949 79.0643 50.5012 79.0289 50.4303C79.0105 50.3934 78.9844 50.3598 78.948 50.3355C78.9111 50.3109 78.8695 50.3 78.827 50.3V50.5ZM78.877 50.7C78.877 50.7949 78.8646 50.8512 78.85 50.8803C78.8434 50.8934 78.8383 50.8973 78.8371 50.898C78.8366 50.8984 78.8345 50.9 78.827 50.9V51.1C78.8695 51.1 78.9111 51.0891 78.948 51.0645C78.9844 51.0402 79.0105 51.0066 79.0289 50.9697C79.0643 50.8988 79.077 50.8051 79.077 50.7H78.877ZM78.827 50.9C77.8275 50.9 77.0802 50.8833 76.5836 50.8502L76.5703 51.0498C77.0737 51.0833 77.8265 51.1 78.827 51.1V50.9ZM76.5784 50.85L73.2284 50.8L73.2255 51L76.5755 51.05L76.5784 50.85ZM73.2245 50.8L71.1745 50.85L71.1794 51.05L73.2294 51L73.2245 50.8ZM71.1679 50.8504C70.8061 50.8833 70.2101 50.9 69.377 50.9V51.1C70.2105 51.1 70.8144 51.0834 71.186 51.0496L71.1679 50.8504ZM69.377 50.9C69.3695 50.9 69.3673 50.8984 69.3668 50.898C69.3656 50.8973 69.3605 50.8934 69.3539 50.8803C69.3393 50.8512 69.327 50.7949 69.327 50.7H69.127C69.127 50.8051 69.1396 50.8988 69.175 50.9697C69.1934 51.0066 69.2195 51.0402 69.2559 51.0645C69.2928 51.0891 69.3345 51.1 69.377 51.1V50.9ZM69.327 50.7C69.327 50.6051 69.3393 50.5488 69.3539 50.5197C69.3605 50.5066 69.3656 50.5027 69.3668 50.502C69.3673 50.5016 69.3695 50.5 69.377 50.5V50.3C69.3345 50.3 69.2928 50.3109 69.2559 50.3355C69.2195 50.3598 69.1934 50.3934 69.175 50.4303C69.1396 50.5012 69.127 50.5949 69.127 50.7H69.327ZM69.377 50.5C70.531 50.5 71.6492 50.1603 72.73 49.4848L72.624 49.3152C71.5714 49.9731 70.4895 50.3 69.377 50.3V50.5ZM72.7318 49.4836C73.8105 48.7757 74.8353 47.7667 75.8072 46.4597L75.6467 46.3403C74.6852 47.6333 73.6767 48.6243 72.6221 49.3164L72.7318 49.4836ZM75.8077 46.4589L83.3577 36.1089L83.1962 35.9911L75.6462 46.3411L75.8077 46.4589ZM83.3603 35.9948L75.3103 23.8448L75.1436 23.9552L83.1936 36.1052L83.3603 35.9948ZM75.3102 23.8445C74.4394 22.5383 73.5631 21.6087 72.6794 21.0648L72.5745 21.2352C73.4241 21.758 74.2812 22.6617 75.1437 23.9555L75.3102 23.8445ZM72.6794 21.0648C71.7943 20.5202 70.7421 20.25 69.527 20.25V20.45C70.7118 20.45 71.7263 20.7132 72.5745 21.2352L72.6794 21.0648ZM69.527 20.25C69.56 20.25 69.5591 20.2803 69.5468 20.2434C69.5354 20.209 69.527 20.1471 69.527 20.05H69.327C69.327 20.1529 69.3352 20.241 69.3571 20.3066C69.3781 20.3697 69.4272 20.45 69.527 20.45V20.25ZM69.527 20.05C69.527 19.9529 69.5354 19.891 69.5468 19.8566C69.5591 19.8197 69.56 19.85 69.527 19.85V19.65C69.4272 19.65 69.3781 19.7303 69.3571 19.7934C69.3352 19.859 69.327 19.9471 69.327 20.05H69.527ZM69.527 19.85C69.9228 19.85 70.5529 19.8831 71.4193 19.9497L71.4346 19.7503C70.5676 19.6836 69.9311 19.65 69.527 19.65V19.85ZM71.4242 19.95L73.2242 20L73.2297 19.8L71.4297 19.75L71.4242 19.95ZM73.227 20C74.2955 20 75.6303 19.9666 77.2311 19.8999L77.2228 19.7001C75.6236 19.7667 74.2917 19.8 73.227 19.8V20ZM77.2289 19.9L79.8289 19.85L79.825 19.65L77.225 19.7L77.2289 19.9ZM79.827 19.85C79.8345 19.85 79.8366 19.8516 79.8371 19.852C79.8383 19.8527 79.8434 19.8566 79.85 19.8697C79.8646 19.8988 79.877 19.9551 79.877 20.05H80.077C80.077 19.9449 80.0643 19.8512 80.0289 19.7803C80.0105 19.7434 79.9844 19.7098 79.948 19.6855C79.9111 19.6609 79.8695 19.65 79.827 19.65V19.85ZM79.877 20.05C79.877 20.1449 79.8646 20.2012 79.85 20.2303C79.8434 20.2434 79.8383 20.2473 79.8371 20.248C79.8366 20.2484 79.8345 20.25 79.827 20.25V20.45C79.8695 20.45 79.9111 20.4391 79.948 20.4145C79.9844 20.3902 80.0105 20.3566 80.0289 20.3197C80.0643 20.2488 80.077 20.1551 80.077 20.05H79.877ZM79.827 20.25C78.8256 20.25 78.0929 20.3329 77.6411 20.5067L77.7129 20.6933C78.1277 20.5338 78.8284 20.45 79.827 20.45V20.25ZM77.6475 20.5044C77.4208 20.5742 77.2405 20.6731 77.1162 20.807C76.9898 20.943 76.927 21.1094 76.927 21.3H77.127C77.127 21.1573 77.1724 21.0403 77.2627 20.943C77.3551 20.8436 77.4998 20.7591 77.7064 20.6956L77.6475 20.5044ZM76.927 21.3C76.927 21.4361 76.9702 21.5963 77.0475 21.7769C77.1255 21.9587 77.2411 22.168 77.3928 22.4041L77.5611 22.2959C77.4128 22.0654 77.3034 21.8663 77.2314 21.6981C77.1587 21.5287 77.127 21.3972 77.127 21.3H76.927ZM77.3937 22.4055L84.9937 33.8055L85.1602 33.6945L77.5602 22.2945L77.3937 22.4055ZM85.1585 33.8079L91.5085 24.8579L91.3454 24.7421L84.9954 33.6921L85.1585 33.8079ZM91.5094 24.8566C92.3105 23.6883 92.727 22.7495 92.727 22.05H92.527C92.527 22.6838 92.1434 23.5784 91.3445 24.7434L91.5094 24.8566ZM92.727 22.05C92.727 21.4483 92.4669 20.9903 91.9525 20.6887C91.4464 20.392 90.7001 20.25 89.727 20.25V20.45C90.6871 20.45 91.3908 20.5913 91.8514 20.8613C92.3037 21.1264 92.527 21.5183 92.527 22.05H92.727ZM89.727 20.25C89.7195 20.25 89.7173 20.2484 89.7168 20.248C89.7156 20.2473 89.7105 20.2434 89.7039 20.2303C89.6893 20.2012 89.677 20.1449 89.677 20.05H89.477C89.477 20.1551 89.4896 20.2488 89.525 20.3197C89.5434 20.3566 89.5695 20.3902 89.6059 20.4145C89.6428 20.4391 89.6845 20.45 89.727 20.45V20.25ZM89.677 20.05C89.677 19.9551 89.6893 19.8988 89.7039 19.8697C89.7105 19.8566 89.7156 19.8527 89.7168 19.852C89.7173 19.8516 89.7195 19.85 89.727 19.85V19.65C89.6845 19.65 89.6428 19.6609 89.6059 19.6855C89.5695 19.7098 89.5434 19.7434 89.525 19.7803C89.4896 19.8512 89.477 19.9449 89.477 20.05H89.677ZM89.7247 19.85L91.9747 19.9L91.9792 19.7L89.7292 19.65L89.7247 19.85ZM91.9717 19.8999C93.2396 19.9666 94.3581 20 95.327 20V19.8C94.3625 19.8 93.2476 19.7667 91.9822 19.7001L91.9717 19.8999ZM95.327 20C95.8973 20 96.5835 19.9665 97.3853 19.8997L97.3687 19.7003C96.5704 19.7669 95.89 19.8 95.327 19.8V20ZM97.3797 19.9L99.1797 19.85L99.1742 19.65L97.3742 19.7L97.3797 19.9ZM99.177 19.85C99.1845 19.85 99.1866 19.8516 99.1871 19.852C99.1883 19.8527 99.1934 19.8566 99.2 19.8697C99.2146 19.8988 99.227 19.9551 99.227 20.05H99.427C99.427 19.9449 99.4143 19.8512 99.3789 19.7803C99.3605 19.7434 99.3344 19.7098 99.2981 19.6855C99.2611 19.6609 99.2195 19.65 99.177 19.65V19.85ZM99.227 20.05C99.227 20.1449 99.2146 20.2012 99.2 20.2303C99.1934 20.2434 99.1883 20.2473 99.1871 20.248C99.1866 20.2484 99.1845 20.25 99.177 20.25V20.45C99.2195 20.45 99.2611 20.4391 99.2981 20.4145C99.3344 20.3902 99.3605 20.3566 99.3789 20.3197C99.4143 20.2488 99.427 20.1551 99.427 20.05H99.227ZM99.177 20.25C96.8624 20.25 94.6031 21.7817 92.3963 24.7909L92.5576 24.9091C94.7509 21.9183 96.9582 20.45 99.177 20.45V20.25ZM92.3963 24.7909L85.3963 34.3409L85.5576 34.4591L92.5576 24.9091L92.3963 24.7909ZM85.3937 34.4555L93.6937 46.9055L93.8602 46.7945L85.5602 34.3445L85.3937 34.4555ZM93.6931 46.9045C94.5642 48.2446 95.4576 49.1918 96.376 49.736L96.4779 49.564C95.5963 49.0415 94.7231 48.122 93.8608 46.7955L93.6931 46.9045ZM96.3797 49.7381C97.3321 50.2483 98.5498 50.5 100.027 50.5V50.3C98.5707 50.3 97.3885 50.0517 96.4742 49.5619L96.3797 49.7381ZM128.593 21.5L128.517 21.5657L128.521 21.569L128.593 21.5ZM125.393 19.75L125.395 19.65H125.393V19.75ZM127.493 19.8L127.499 19.7001L127.495 19.7L127.493 19.8ZM132.643 19.8L132.641 19.6999L132.636 19.7002L132.643 19.8ZM134.693 19.75V19.65L134.691 19.65L134.693 19.75ZM131.693 21.5L131.769 21.5654L131.77 21.5637L131.693 21.5ZM127.593 48.4L127.521 48.3304L127.521 48.3304L127.593 48.4ZM112.643 50.2L112.595 50.2878L112.596 50.2885L112.643 50.2ZM108.393 46L108.306 46.0486L108.306 46.0486L108.393 46ZM106.543 21.6L106.451 21.6395L106.454 21.6447L106.543 21.6ZM105.293 20.65L105.261 20.7451L105.268 20.7467L105.293 20.65ZM102.443 19.75L102.445 19.65H102.443V19.75ZM104.843 19.8L104.848 19.7001L104.845 19.7L104.843 19.8ZM111.643 19.8L111.641 19.7L111.638 19.7001L111.643 19.8ZM113.943 19.75V19.65L113.941 19.65L113.943 19.75ZM111.093 20.65L111.061 20.5551L111.061 20.5551L111.093 20.65ZM109.843 21.7L109.752 21.6577L109.751 21.6606L109.843 21.7ZM112.293 47.05L112.217 47.1152L112.218 47.1158L112.293 47.05ZM127.093 47.35L127.167 47.4167L127.168 47.416L127.093 47.35ZM129.743 25C129.743 23.3886 129.391 22.1911 128.665 21.431L128.521 21.569C129.195 22.2755 129.543 23.4114 129.543 25H129.743ZM128.668 21.4344C127.976 20.6376 126.875 20.25 125.393 20.25V20.45C126.844 20.45 127.877 20.8291 128.518 21.5656L128.668 21.4344ZM125.393 20.25C125.385 20.25 125.383 20.2484 125.383 20.248C125.382 20.2473 125.376 20.2434 125.37 20.2303C125.355 20.2012 125.343 20.1449 125.343 20.05H125.143C125.143 20.1551 125.156 20.2488 125.191 20.3197C125.209 20.3566 125.236 20.3902 125.272 20.4145C125.309 20.4391 125.35 20.45 125.393 20.45V20.25ZM125.343 20.05C125.343 19.9551 125.355 19.8988 125.37 19.8697C125.376 19.8566 125.382 19.8527 125.383 19.852C125.383 19.8516 125.385 19.85 125.393 19.85V19.65C125.35 19.65 125.309 19.6609 125.272 19.6855C125.236 19.7098 125.209 19.7434 125.191 19.7803C125.156 19.8512 125.143 19.9449 125.143 20.05H125.343ZM125.391 19.85L127.491 19.9L127.495 19.7L125.395 19.65L125.391 19.85ZM127.487 19.8998C128.621 19.9665 129.54 20 130.243 20V19.8C129.546 19.8 128.631 19.7668 127.499 19.7002L127.487 19.8998ZM130.243 20C130.846 20 131.649 19.9665 132.65 19.8998L132.636 19.7002C131.637 19.7668 130.84 19.8 130.243 19.8V20ZM132.645 19.9L134.695 19.85L134.691 19.65L132.641 19.7L132.645 19.9ZM134.693 19.85C134.66 19.85 134.661 19.8197 134.673 19.8566C134.685 19.891 134.693 19.9529 134.693 20.05H134.893C134.893 19.9471 134.885 19.859 134.863 19.7934C134.842 19.7303 134.793 19.65 134.693 19.65V19.85ZM134.693 20.05C134.693 20.1471 134.685 20.209 134.673 20.2434C134.661 20.2803 134.66 20.25 134.693 20.25V20.45C134.793 20.45 134.842 20.3697 134.863 20.3066C134.885 20.241 134.893 20.1529 134.893 20.05H134.693ZM134.693 20.25C133.308 20.25 132.275 20.6389 131.616 21.4363L131.77 21.5637C132.378 20.8278 133.344 20.45 134.693 20.45V20.25ZM131.617 21.4346C130.961 22.1947 130.643 23.3905 130.643 25H130.843C130.843 23.4095 131.158 22.2719 131.769 21.5654L131.617 21.4346ZM130.643 25V39.3H130.843V25H130.643ZM130.643 39.3C130.643 43.1819 129.598 46.1874 127.521 48.3304L127.665 48.4696C129.788 46.2793 130.843 43.2181 130.843 39.3H130.643ZM127.521 48.3304C125.443 50.4741 122.638 51.55 119.093 51.55V51.75C122.681 51.75 125.543 50.6592 127.665 48.4696L127.521 48.3304ZM119.093 51.55C116.639 51.55 114.506 51.0693 112.69 50.1115L112.596 50.2885C114.447 51.264 116.613 51.75 119.093 51.75V51.55ZM112.691 50.1122C110.874 49.1211 109.471 47.7346 108.48 45.9514L108.306 46.0486C109.315 47.8654 110.745 49.2789 112.595 50.2878L112.691 50.1122ZM108.48 45.9514C107.49 44.1684 106.993 42.1022 106.993 39.75H106.793C106.793 42.1311 107.296 44.2316 108.306 46.0486L108.48 45.9514ZM106.993 39.75V23.8H106.793V39.75H106.993ZM106.993 23.8C106.993 22.7962 106.877 22.0435 106.632 21.5553L106.454 21.6447C106.676 22.0899 106.793 22.8038 106.793 23.8H106.993ZM106.635 21.5606C106.419 21.0577 105.972 20.7253 105.318 20.5533L105.268 20.7467C105.88 20.908 106.267 21.2089 106.451 21.6394L106.635 21.5606ZM105.325 20.5551C104.708 20.3498 103.745 20.25 102.443 20.25V20.45C103.741 20.45 104.677 20.5502 105.261 20.7449L105.325 20.5551ZM102.443 20.25C102.476 20.25 102.475 20.2803 102.463 20.2434C102.451 20.209 102.443 20.1471 102.443 20.05H102.243C102.243 20.1529 102.251 20.241 102.273 20.3066C102.294 20.3697 102.343 20.45 102.443 20.45V20.25ZM102.443 20.05C102.443 19.9529 102.451 19.891 102.463 19.8566C102.475 19.8197 102.476 19.85 102.443 19.85V19.65C102.343 19.65 102.294 19.7303 102.273 19.7934C102.251 19.859 102.243 19.9471 102.243 20.05H102.443ZM102.441 19.85L104.841 19.9L104.845 19.7L102.445 19.65L102.441 19.85ZM104.838 19.8999C106.239 19.9666 107.357 20 108.193 20V19.8C107.362 19.8 106.247 19.7667 104.848 19.7001L104.838 19.8999ZM108.193 20C109.095 20 110.247 19.9666 111.648 19.8999L111.638 19.7001C110.239 19.7667 109.091 19.8 108.193 19.8V20ZM111.645 19.9L113.945 19.85L113.941 19.65L111.641 19.7L111.645 19.9ZM113.943 19.85C113.95 19.85 113.953 19.8516 113.953 19.852C113.954 19.8527 113.959 19.8566 113.966 19.8697C113.981 19.8988 113.993 19.9551 113.993 20.05H114.193C114.193 19.9449 114.18 19.8512 114.145 19.7803C114.126 19.7434 114.1 19.7098 114.064 19.6855C114.027 19.6609 113.985 19.65 113.943 19.65V19.85ZM113.993 20.05C113.993 20.1449 113.981 20.2012 113.966 20.2303C113.959 20.2434 113.954 20.2473 113.953 20.248C113.953 20.2484 113.95 20.25 113.943 20.25V20.45C113.985 20.45 114.027 20.4391 114.064 20.4145C114.1 20.3902 114.126 20.3566 114.145 20.3197C114.18 20.2488 114.193 20.1551 114.193 20.05H113.993ZM113.943 20.25C112.641 20.25 111.677 20.3498 111.061 20.5551L111.125 20.7449C111.708 20.5502 112.645 20.45 113.943 20.45V20.25ZM111.061 20.5551C110.439 20.7624 109.999 21.1291 109.752 21.6577L109.934 21.7423C110.154 21.2709 110.546 20.9376 111.125 20.7449L111.061 20.5551ZM109.751 21.6606C109.543 22.1467 109.443 22.897 109.443 23.9H109.643C109.643 22.903 109.743 22.1866 109.935 21.7394L109.751 21.6606ZM109.443 23.9V38H109.643V23.9H109.443ZM109.443 38C109.443 41.9147 110.363 44.9578 112.217 47.1152L112.369 46.9848C110.556 44.8756 109.643 41.8853 109.643 38H109.443ZM112.218 47.1158C114.073 49.2416 116.67 50.3 119.993 50.3V50.1C116.716 50.1 114.179 49.0584 112.368 46.9842L112.218 47.1158ZM119.993 50.3C123.049 50.3 125.445 49.3419 127.167 47.4167L127.018 47.2833C125.341 49.1581 123.004 50.1 119.993 50.1V50.3ZM127.168 47.416C128.889 45.4593 129.743 42.7664 129.743 39.35H129.543C129.543 42.7336 128.697 45.3741 127.018 47.284L127.168 47.416ZM129.743 39.35V25H129.543V39.35H129.743ZM159.056 46.85L158.98 46.9146L158.981 46.9155L159.056 46.85ZM150.556 35.35L150.639 35.2939L150.602 35.2389L150.537 35.2519L150.556 35.35ZM145.256 35.55L145.264 35.4503L145.156 35.442V35.55H145.256ZM145.556 49.2L145.464 49.2395L145.467 49.2447L145.556 49.2ZM147.306 50.95L147.312 50.8501L147.308 50.85L147.306 50.95ZM143.906 50.9L143.908 50.8L143.905 50.8L143.906 50.9ZM140.606 50.95L140.605 50.8499L140.601 50.8502L140.606 50.95ZM141.006 50.15L140.981 50.0533L140.979 50.0536L141.006 50.15ZM142.306 49.2L142.396 49.2447L142.397 49.2423L142.306 49.2ZM142.306 21.6L142.214 21.6395L142.217 21.6447L142.306 21.6ZM141.056 20.65L141.025 20.7451L141.031 20.7467L141.056 20.65ZM138.206 19.75L138.208 19.65H138.206V19.75ZM140.606 19.8L140.611 19.7001L140.608 19.7L140.606 19.8ZM145.956 19.85L145.951 19.7501L145.951 19.7501L145.956 19.85ZM147.656 19.75L147.663 19.8498L147.665 19.8497L147.656 19.75ZM156.656 21.45L156.589 21.5243L156.591 21.5259L156.656 21.45ZM157.156 31.1L157.236 31.1597L157.237 31.1588L157.156 31.1ZM152.906 34.5L152.864 34.4096L152.756 34.4603L152.825 34.5576L152.906 34.5ZM160.106 44L160.03 44.0649L160.03 44.0649L160.106 44ZM165.256 48.9L165.201 48.9832L165.201 48.9832L165.256 48.9ZM145.256 34.4H145.156V34.4899L145.246 34.4994L145.256 34.4ZM154.156 32.85L154.226 32.9217L154.226 32.9217L154.156 32.85ZM154.056 22L153.988 22.0727L153.989 22.0736L154.056 22ZM169.706 50.5C169.714 50.5 169.716 50.5016 169.716 50.502C169.718 50.5027 169.723 50.5066 169.729 50.5197C169.744 50.5488 169.756 50.6051 169.756 50.7H169.956C169.956 50.5949 169.944 50.5012 169.908 50.4303C169.89 50.3934 169.864 50.3598 169.827 50.3355C169.79 50.3109 169.749 50.3 169.706 50.3V50.5ZM169.756 50.7C169.756 50.7949 169.744 50.8512 169.729 50.8803C169.723 50.8934 169.718 50.8973 169.716 50.898C169.716 50.8984 169.714 50.9 169.706 50.9V51.1C169.749 51.1 169.79 51.0891 169.827 51.0645C169.864 51.0402 169.89 51.0066 169.908 50.9697C169.944 50.8988 169.956 50.8051 169.956 50.7H169.756ZM169.706 50.9H163.906V51.1H169.706V50.9ZM163.906 50.9C163.723 50.9 163.484 50.8231 163.184 50.6535C162.885 50.485 162.535 50.2301 162.134 49.8865C161.331 49.1996 160.331 48.1663 159.132 46.7845L158.981 46.9155C160.182 48.3003 161.19 49.3421 162.004 50.0385C162.411 50.3866 162.771 50.6504 163.085 50.8277C163.397 51.004 163.673 51.1 163.906 51.1V50.9ZM159.133 46.7854C156.769 43.9892 153.938 40.1591 150.639 35.2939L150.473 35.4061C153.774 40.2742 156.61 44.1107 158.98 46.9146L159.133 46.7854ZM150.537 35.2519C149.375 35.4843 148.331 35.6 147.406 35.6V35.8C148.348 35.8 149.404 35.6823 150.576 35.4481L150.537 35.2519ZM147.406 35.6C147.278 35.6 146.567 35.5505 145.264 35.4503L145.249 35.6497C146.545 35.7495 147.268 35.8 147.406 35.8V35.6ZM145.156 35.55V46.95H145.356V35.55H145.156ZM145.156 46.95C145.156 47.9858 145.256 48.753 145.464 49.2394L145.648 49.1606C145.457 48.7136 145.356 47.9809 145.356 46.95H145.156ZM145.467 49.2447C145.715 49.7416 146.158 50.0737 146.779 50.2464L146.833 50.0536C146.255 49.893 145.864 49.5918 145.646 49.1553L145.467 49.2447ZM146.779 50.2464C147.393 50.4169 148.372 50.5 149.706 50.5V50.3C148.374 50.3 147.419 50.2164 146.833 50.0536L146.779 50.2464ZM149.706 50.5C149.714 50.5 149.716 50.5016 149.716 50.502C149.718 50.5027 149.723 50.5066 149.729 50.5197C149.744 50.5488 149.756 50.6051 149.756 50.7H149.956C149.956 50.5949 149.944 50.5012 149.908 50.4303C149.89 50.3934 149.864 50.3598 149.827 50.3355C149.79 50.3109 149.749 50.3 149.706 50.3V50.5ZM149.756 50.7C149.756 50.7949 149.744 50.8512 149.729 50.8803C149.723 50.8934 149.718 50.8973 149.716 50.898C149.716 50.8984 149.714 50.9 149.706 50.9V51.1C149.749 51.1 149.79 51.0891 149.827 51.0645C149.864 51.0402 149.89 51.0066 149.908 50.9697C149.944 50.8988 149.956 50.8051 149.956 50.7H149.756ZM149.706 50.9C148.707 50.9 147.909 50.8833 147.312 50.8502L147.301 51.0498C147.903 51.0833 148.705 51.1 149.706 51.1V50.9ZM147.308 50.85L143.908 50.8L143.905 51L147.305 51.05L147.308 50.85ZM143.905 50.8L140.605 50.85L140.608 51.05L143.908 51L143.905 50.8ZM140.601 50.8502C140.003 50.8833 139.172 50.9 138.106 50.9V51.1C139.174 51.1 140.009 51.0833 140.612 51.0498L140.601 50.8502ZM138.106 50.9C138.139 50.9 138.138 50.9303 138.126 50.8934C138.115 50.859 138.106 50.7971 138.106 50.7H137.906C137.906 50.8029 137.915 50.891 137.936 50.9566C137.957 51.0197 138.006 51.1 138.106 51.1V50.9ZM138.106 50.7C138.106 50.6029 138.115 50.541 138.126 50.5066C138.138 50.4697 138.139 50.5 138.106 50.5V50.3C138.006 50.3 137.957 50.3803 137.936 50.4434C137.915 50.509 137.906 50.5971 137.906 50.7H138.106ZM138.106 50.5C139.441 50.5 140.419 50.4169 141.033 50.2464L140.979 50.0536C140.393 50.2164 139.438 50.3 138.106 50.3V50.5ZM141.032 50.2467C141.685 50.0747 142.146 49.7434 142.396 49.2447L142.217 49.1553C141.999 49.5899 141.594 49.8919 140.981 50.0533L141.032 50.2467ZM142.397 49.2423C142.64 48.7223 142.756 47.9546 142.756 46.95H142.556C142.556 47.9454 142.44 48.6777 142.216 49.1577L142.397 49.2423ZM142.756 46.95V23.8H142.556V46.95H142.756ZM142.756 23.8C142.756 22.7962 142.64 22.0435 142.396 21.5553L142.217 21.6447C142.439 22.0899 142.556 22.8038 142.556 23.8H142.756ZM142.398 21.5606C142.183 21.0577 141.735 20.7253 141.082 20.5533L141.031 20.7467C141.644 20.908 142.03 21.2089 142.214 21.6394L142.398 21.5606ZM141.088 20.5551C140.472 20.3498 139.508 20.25 138.206 20.25V20.45C139.504 20.45 140.441 20.5502 141.025 20.7449L141.088 20.5551ZM138.206 20.25C138.199 20.25 138.197 20.2484 138.196 20.248C138.195 20.2473 138.19 20.2434 138.183 20.2303C138.169 20.2012 138.156 20.1449 138.156 20.05H137.956C137.956 20.1551 137.969 20.2488 138.004 20.3197C138.023 20.3566 138.049 20.3902 138.085 20.4145C138.122 20.4391 138.164 20.45 138.206 20.45V20.25ZM138.156 20.05C138.156 19.9551 138.169 19.8988 138.183 19.8697C138.19 19.8566 138.195 19.8527 138.196 19.852C138.197 19.8516 138.199 19.85 138.206 19.85V19.65C138.164 19.65 138.122 19.6609 138.085 19.6855C138.049 19.7098 138.023 19.7434 138.004 19.7803C137.969 19.8512 137.956 19.9449 137.956 20.05H138.156ZM138.204 19.85L140.604 19.9L140.608 19.7L138.208 19.65L138.204 19.85ZM140.601 19.8999C141.935 19.9666 143.037 20 143.906 20V19.8C143.042 19.8 141.944 19.7667 140.611 19.7001L140.601 19.8999ZM143.906 20C144.641 20 145.326 19.9833 145.962 19.9499L145.951 19.7501C145.32 19.7834 144.638 19.8 143.906 19.8V20ZM145.961 19.9499C146.628 19.9165 147.196 19.8831 147.663 19.8497L147.649 19.6503C147.183 19.6835 146.617 19.7168 145.951 19.7501L145.961 19.9499ZM147.665 19.8497C148.863 19.7498 149.926 19.7 150.856 19.7V19.5C149.919 19.5 148.85 19.5502 147.648 19.6503L147.665 19.8497ZM150.856 19.7C153.34 19.7 155.247 20.3126 156.589 21.5242L156.723 21.3758C155.332 20.1207 153.372 19.5 150.856 19.5V19.7ZM156.591 21.5259C157.967 22.7052 158.656 24.2764 158.656 26.25H158.856C158.856 24.2236 158.146 22.5948 156.721 21.3741L156.591 21.5259ZM158.656 26.25C158.656 27.9949 158.13 29.5911 157.075 31.0412L157.237 31.1588C158.316 29.6755 158.856 28.0384 158.856 26.25H158.656ZM157.076 31.0403C156.02 32.4593 154.617 33.5826 152.864 34.4096L152.949 34.5904C154.729 33.7508 156.159 32.6074 157.236 31.1597L157.076 31.0403ZM152.825 34.5576C155.692 38.6254 158.094 41.7949 160.03 44.0649L160.182 43.9351C158.252 41.6718 155.854 38.508 152.988 34.4424L152.825 34.5576ZM160.03 44.0649C161.966 46.3347 163.69 47.9758 165.201 48.9832L165.312 48.8168C163.823 47.8242 162.113 46.1987 160.182 43.9351L160.03 44.0649ZM165.201 48.9832C166.713 49.9916 168.216 50.5 169.706 50.5V50.3C168.263 50.3 166.799 49.8084 165.312 48.8168L165.201 48.9832ZM145.246 34.4994C146.183 34.5999 147.186 34.65 148.256 34.65V34.45C147.193 34.45 146.196 34.4001 145.267 34.3006L145.246 34.4994ZM148.256 34.65C151.032 34.65 153.031 34.0823 154.226 32.9217L154.087 32.7783C152.948 33.8843 151.014 34.45 148.256 34.45V34.65ZM154.226 32.9217C155.452 31.7298 156.056 29.9495 156.056 27.6H155.856C155.856 29.9172 155.261 31.6369 154.087 32.7783L154.226 32.9217ZM156.056 27.6C156.056 25.0191 155.42 23.1197 154.124 21.9264L153.989 22.0736C155.226 23.2136 155.856 25.0475 155.856 27.6H156.056ZM154.125 21.9274C152.867 20.7372 151.038 20.15 148.656 20.15V20.35C151.008 20.35 152.779 20.9295 153.988 22.0726L154.125 21.9274ZM148.656 20.15C147.384 20.15 146.467 20.3832 145.938 20.8769L146.074 21.0231C146.546 20.5835 147.396 20.35 148.656 20.35V20.15ZM145.938 20.8769C145.669 21.1282 145.474 21.5111 145.347 22.0129C145.219 22.5154 145.156 23.1452 145.156 23.9H145.356C145.356 23.1547 145.418 22.5429 145.541 22.0621C145.663 21.5806 145.844 21.2385 146.074 21.0231L145.938 20.8769ZM145.156 23.9V34.4H145.356V23.9H145.156ZM196.925 19.75V19.65L196.922 19.65L196.925 19.75ZM193.325 21.55L193.38 21.6336L193.382 21.6325L193.325 21.55ZM190.175 24.85L190.259 24.905L190.259 24.9046L190.175 24.85ZM183.125 35.55L183.041 35.495L183.025 35.52V35.55H183.125ZM183.425 49.2L183.517 49.1606L183.517 49.1606L183.425 49.2ZM185.175 50.95L185.181 50.8501L185.176 50.85L185.175 50.95ZM181.775 50.9L181.776 50.8L181.774 50.8L181.775 50.9ZM178.375 50.95L178.374 50.8499L178.369 50.8502L178.375 50.95ZM178.825 50.15L178.8 50.0533L178.798 50.0536L178.825 50.15ZM180.125 49.2L180.214 49.2447L180.216 49.2423L180.125 49.2ZM180.475 36.3H180.575V36.2689L180.557 36.2432L180.475 36.3ZM171.925 23.9L171.842 23.9555L171.843 23.9568L171.925 23.9ZM169.375 21.15L169.321 21.2342L169.321 21.2342L169.375 21.15ZM166.275 19.75L166.278 19.65H166.275V19.75ZM168.125 19.8L168.133 19.7002L168.128 19.7L168.125 19.8ZM173.975 19.8L173.973 19.7L173.971 19.7001L173.975 19.8ZM176.575 19.75V19.65L176.573 19.65L176.575 19.75ZM174.375 20.6L174.404 20.6957L174.409 20.6942L174.375 20.6ZM174.225 22.35L174.142 22.4055L174.143 22.4072L174.225 22.35ZM182.625 34.4L182.543 34.4572L182.627 34.5781L182.708 34.4551L182.625 34.4ZM189.025 24.7L189.109 24.7551L189.11 24.7521L189.025 24.7ZM187.425 19.75L187.427 19.65H187.425V19.75ZM189.675 19.8L189.68 19.7001L189.677 19.7L189.675 19.8ZM195.075 19.8L195.072 19.6999L195.067 19.7003L195.075 19.8ZM196.925 19.85C196.892 19.85 196.893 19.8197 196.905 19.8566C196.917 19.891 196.925 19.9529 196.925 20.05H197.125C197.125 19.9471 197.117 19.859 197.095 19.7934C197.074 19.7303 197.025 19.65 196.925 19.65V19.85ZM196.925 20.05C196.925 20.1471 196.917 20.209 196.905 20.2434C196.893 20.2803 196.892 20.25 196.925 20.25V20.45C197.025 20.45 197.074 20.3697 197.095 20.3066C197.117 20.241 197.125 20.1529 197.125 20.05H196.925ZM196.925 20.25C195.669 20.25 194.449 20.6578 193.268 21.4675L193.382 21.6325C194.534 20.8422 195.715 20.45 196.925 20.45V20.25ZM193.27 21.4664C192.09 22.2422 191.03 23.3531 190.091 24.7954L190.259 24.9046C191.186 23.4803 192.227 22.3912 193.38 21.6336L193.27 21.4664ZM190.091 24.795L183.041 35.495L183.209 35.605L190.259 24.905L190.091 24.795ZM183.025 35.55V46.95H183.225V35.55H183.025ZM183.025 46.95C183.025 47.9858 183.125 48.753 183.333 49.2394L183.517 49.1606C183.325 48.7136 183.225 47.9809 183.225 46.95H183.025ZM183.333 49.2394C183.548 49.7402 183.976 50.0736 184.598 50.2464L184.652 50.0536C184.074 49.8931 183.702 49.5931 183.517 49.1606L183.333 49.2394ZM184.598 50.2464C185.212 50.4169 186.19 50.5 187.525 50.5V50.3C186.193 50.3 185.238 50.2164 184.652 50.0536L184.598 50.2464ZM187.525 50.5C187.533 50.5 187.535 50.5016 187.535 50.502C187.536 50.5027 187.541 50.5066 187.548 50.5197C187.563 50.5488 187.575 50.6051 187.575 50.7H187.775C187.775 50.5949 187.762 50.5012 187.727 50.4303C187.709 50.3934 187.682 50.3598 187.646 50.3355C187.609 50.3109 187.567 50.3 187.525 50.3V50.5ZM187.575 50.7C187.575 50.7949 187.563 50.8512 187.548 50.8803C187.541 50.8934 187.536 50.8973 187.535 50.898C187.535 50.8984 187.533 50.9 187.525 50.9V51.1C187.567 51.1 187.609 51.0891 187.646 51.0645C187.682 51.0402 187.709 51.0066 187.727 50.9697C187.762 50.8988 187.775 50.8051 187.775 50.7H187.575ZM187.525 50.9C186.526 50.9 185.745 50.8833 185.181 50.8502L185.169 51.0498C185.739 51.0833 186.524 51.1 187.525 51.1V50.9ZM185.176 50.85L181.776 50.8L181.774 51L185.174 51.05L185.176 50.85ZM181.774 50.8L178.374 50.85L178.376 51.05L181.776 51L181.774 50.8ZM178.369 50.8502C177.772 50.8833 176.974 50.9 175.975 50.9V51.1C176.976 51.1 177.778 51.0833 178.381 51.0498L178.369 50.8502ZM175.975 50.9C175.967 50.9 175.965 50.8984 175.965 50.898C175.964 50.8973 175.959 50.8934 175.952 50.8803C175.937 50.8512 175.925 50.7949 175.925 50.7H175.725C175.725 50.8051 175.738 50.8988 175.773 50.9697C175.791 51.0066 175.818 51.0402 175.854 51.0645C175.891 51.0891 175.933 51.1 175.975 51.1V50.9ZM175.925 50.7C175.925 50.6051 175.937 50.5488 175.952 50.5197C175.959 50.5066 175.964 50.5027 175.965 50.502C175.965 50.5016 175.967 50.5 175.975 50.5V50.3C175.933 50.3 175.891 50.3109 175.854 50.3355C175.818 50.3598 175.791 50.3934 175.773 50.4303C175.738 50.5012 175.725 50.5949 175.725 50.7H175.925ZM175.975 50.5C177.276 50.5 178.238 50.4169 178.852 50.2464L178.798 50.0536C178.212 50.2165 177.274 50.3 175.975 50.3V50.5ZM178.85 50.2467C179.504 50.0747 179.965 49.7434 180.214 49.2447L180.036 49.1553C179.818 49.5899 179.413 49.8919 178.8 50.0533L178.85 50.2467ZM180.216 49.2423C180.458 48.7223 180.575 47.9546 180.575 46.95H180.375C180.375 47.9454 180.258 48.6777 180.034 49.1577L180.216 49.2423ZM180.575 46.95V36.3H180.375V46.95H180.575ZM180.557 36.2432L172.007 23.8432L171.843 23.9568L180.393 36.3568L180.557 36.2432ZM172.008 23.8445C171.138 22.539 170.279 21.6096 169.429 21.0658L169.321 21.2342C170.138 21.757 170.979 22.661 171.842 23.9555L172.008 23.8445ZM169.429 21.0658C168.576 20.5199 167.523 20.25 166.275 20.25V20.45C167.494 20.45 168.507 20.7135 169.321 21.2342L169.429 21.0658ZM166.275 20.25C166.267 20.25 166.265 20.2484 166.265 20.248C166.264 20.2473 166.259 20.2434 166.252 20.2303C166.237 20.2012 166.225 20.1449 166.225 20.05H166.025C166.025 20.1551 166.038 20.2488 166.073 20.3197C166.091 20.3566 166.118 20.3902 166.154 20.4145C166.191 20.4391 166.233 20.45 166.275 20.45V20.25ZM166.225 20.05C166.225 19.9551 166.237 19.8988 166.252 19.8697C166.259 19.8566 166.264 19.8527 166.265 19.852C166.265 19.8516 166.267 19.85 166.275 19.85V19.65C166.233 19.65 166.191 19.6609 166.154 19.6855C166.118 19.7098 166.091 19.7434 166.073 19.7803C166.038 19.8512 166.025 19.9449 166.025 20.05H166.225ZM166.272 19.85L168.122 19.9L168.128 19.7L166.278 19.65L166.272 19.85ZM168.117 19.8997C168.917 19.9664 169.521 20 169.925 20V19.8C169.529 19.8 168.933 19.767 168.133 19.7003L168.117 19.8997ZM169.925 20C171.027 20 172.378 19.9666 173.979 19.8999L173.971 19.7001C172.372 19.7667 171.023 19.8 169.925 19.8V20ZM173.977 19.9L176.577 19.85L176.573 19.65L173.973 19.7L173.977 19.9ZM176.575 19.85C176.542 19.85 176.543 19.8197 176.555 19.8566C176.567 19.891 176.575 19.9529 176.575 20.05H176.775C176.775 19.9471 176.767 19.859 176.745 19.7934C176.724 19.7303 176.675 19.65 176.575 19.65V19.85ZM176.575 20.05C176.575 20.1471 176.567 20.209 176.555 20.2434C176.543 20.2803 176.542 20.25 176.575 20.25V20.45C176.675 20.45 176.724 20.3697 176.745 20.3066C176.767 20.241 176.775 20.1529 176.775 20.05H176.575ZM176.575 20.25C175.573 20.25 174.825 20.3331 174.341 20.5058L174.409 20.6942C174.858 20.5336 175.577 20.45 176.575 20.45V20.25ZM174.346 20.5044C174.119 20.5742 173.939 20.6731 173.814 20.807C173.688 20.943 173.625 21.1094 173.625 21.3H173.825C173.825 21.1573 173.87 21.0403 173.961 20.943C174.053 20.8436 174.198 20.7591 174.404 20.6956L174.346 20.5044ZM173.625 21.3C173.625 21.4231 173.675 21.5774 173.76 21.7555C173.846 21.9365 173.974 22.1534 174.142 22.4055L174.308 22.2945C174.143 22.0466 174.021 21.8385 173.94 21.6695C173.858 21.4976 173.825 21.3769 173.825 21.3H173.625ZM174.143 22.4072L182.543 34.4572L182.707 34.3428L174.307 22.2928L174.143 22.4072ZM182.708 34.4551L189.108 24.7551L188.942 24.6449L182.542 34.3449L182.708 34.4551ZM189.11 24.7521C189.844 23.5513 190.225 22.6136 190.225 21.95H190.025C190.025 22.553 189.673 23.4487 188.94 24.6479L189.11 24.7521ZM190.225 21.95C190.225 21.3822 189.982 20.9491 189.501 20.664C189.028 20.3837 188.332 20.25 187.425 20.25V20.45C188.318 20.45 188.972 20.5829 189.399 20.836C189.818 21.0843 190.025 21.4511 190.025 21.95H190.225ZM187.425 20.25C187.458 20.25 187.457 20.2803 187.445 20.2434C187.433 20.209 187.425 20.1471 187.425 20.05H187.225C187.225 20.1529 187.233 20.241 187.255 20.3066C187.276 20.3697 187.325 20.45 187.425 20.45V20.25ZM187.425 20.05C187.425 19.9529 187.433 19.891 187.445 19.8566C187.457 19.8197 187.458 19.85 187.425 19.85V19.65C187.325 19.65 187.276 19.7303 187.255 19.7934C187.233 19.859 187.225 19.9471 187.225 20.05H187.425ZM187.423 19.85L189.673 19.9L189.677 19.7L187.427 19.65L187.423 19.85ZM189.67 19.8999C190.938 19.9666 192.056 20 193.025 20V19.8C192.061 19.8 190.946 19.7667 189.68 19.7001L189.67 19.8999ZM193.025 20C193.595 20 194.282 19.9665 195.083 19.8997L195.067 19.7003C194.268 19.7669 193.588 19.8 193.025 19.8V20ZM195.078 19.9L196.928 19.85L196.922 19.65L195.072 19.7L195.078 19.9Z" fill="#F1F1F1" fill-opacity="0.2"/>
</svg>
