<svg xmlns="http://www.w3.org/2000/svg" xmlns:xlink="http://www.w3.org/1999/xlink" version="1.1" x="0px" y="0px" viewBox="0 0 90 112.5" style="enable-background:new 0 0 90 90;" xml:space="preserve"><path d="M61.00293,38.746094c6.21582-4.241211,7.560547-12.822754,7.615234-13.186035  c0.001465-0.009949-0.00238-0.019165-0.001221-0.029114c0.006042-0.050293-0.004578-0.101013-0.006287-0.152405  c-0.00293-0.080017-0.003906-0.158813-0.025085-0.233948c-0.003113-0.011108-0.000061-0.022156-0.00354-0.033264  c-0.011902-0.037781-0.039307-0.064453-0.055176-0.099731c-0.032349-0.072144-0.064758-0.141541-0.112915-0.203979  c-0.034058-0.044128-0.074402-0.078064-0.114807-0.115479c-0.051147-0.047668-0.101501-0.092651-0.162476-0.129089  c-0.052002-0.031067-0.106628-0.050415-0.163452-0.071716c-0.041931-0.015747-0.076782-0.043152-0.121643-0.053345  c-0.356445-0.082031-8.838867-1.957031-15.053711,2.282715c-2.488159,1.698425-4.195984,4.092834-5.368225,6.428894  l-2.092712-22.526062c-0.047852-0.514648-0.479492-0.907715-0.996094-0.907715s-0.948242,0.393066-0.996094,0.907715  l-1.492371,16.06427l-1.239441-0.695068c-0.403625-1.345825-1.878662-5.433533-5.387329-7.402893  c-4.048035-2.271973-9.090454-0.765381-9.530457-0.627563c-0.000122,0.000061-0.000244,0.000061-0.000366,0.000061  c-0.010437,0.003296-0.031433,0.009644-0.03656,0.011292c-0.059509,0.019226-0.105225,0.058105-0.158447,0.086914  c-0.053406,0.028687-0.109985,0.048279-0.157837,0.08667c-0.201904,0.161987-0.332581,0.395386-0.365417,0.6521  c-0.007202,0.056335,0.00531,0.110596,0.007751,0.166687c0.002563,0.064453-0.006714,0.127747,0.008911,0.192688  c0.054688,0.224609,1.368164,5.52002,5.510742,7.845215c1.705078,0.957031,3.588867,1.242676,5.231445,1.242676  c1.744141,0,3.211853-0.321411,3.908142-0.504578l2.006409,1.125122l-1.592896,17.146057H22.371094c-0.552734,0-1,0.447754-1,1  v4.882324c0,0.552246,0.447266,1,1,1h2.347412l3.94165,26.535645c0.073242,0.490234,0.494141,0.853027,0.989258,0.853027h29.383789  c0.495117,0,0.916016-0.362793,0.989258-0.853027l3.940674-26.535645h2.348389c0.552734,0,1-0.447754,1-1v-4.882324  c0-0.552246-0.447266-1-1-1h-17.68689l-0.431763-4.647766c0.76062,0.078369,1.651245,0.140442,2.654785,0.140442  C53.873047,41.505859,57.754883,40.962402,61.00293,38.746094z M31.482422,25.259766  c-1.740906-0.977356-2.884399-2.680115-3.593018-4.109314l8.985535,5.03894  C35.28772,26.331665,33.235413,26.24408,31.482422,25.259766z M28.862549,19.40332  c1.586121-0.141357,3.63446-0.052063,5.384521,0.930664c1.738647,0.975708,2.881287,2.674316,3.589905,4.102051L28.862549,19.40332z   M43.700073,28.424377c0-0.000122,0-0.000244,0.000061-0.000366l0.640686-6.897644l2.274536,24.486816h-4.549072  L43.700073,28.424377z M61.230347,57.681152H42.829102c-0.552734,0-1,0.447754-1,1s0.447266,1,1,1H60.93335l-0.562256,3.786621  H47.240234c-0.552734,0-1,0.447754-1,1s0.447266,1,1,1h12.833862l-0.481201,3.240234h-7.856567c-0.552734,0-1,0.447754-1,1  s0.447266,1,1,1h7.55957l-0.417969,2.814941h-3.283203c-0.552734,0-1,0.447754-1,1s0.447266,1,1,1h2.986206l-0.410034,2.76123  h-27.65918l-3.771057-25.388672h35.200317L61.230347,57.681152z M65.311523,48.013184v2.882324h-41.94043v-2.882324H65.311523z   M48.142151,36.571594c0.976257-2.743774,2.722717-6.110229,5.782654-8.198547  c3.039673-2.073975,6.822021-2.46228,9.608093-2.395325C59.768188,27.699768,53.772705,31.015198,48.142151,36.571594z   M48.21991,39.360962c6.795959-7.252319,14.65625-10.991211,18.029724-12.363403  c-0.69397,2.581909-2.455994,7.423157-6.373657,10.096191C55.989319,39.744446,50.957092,39.663696,48.21991,39.360962z"/></svg>