<svg xmlns="http://www.w3.org/2000/svg" xmlns:xlink="http://www.w3.org/1999/xlink" version="1.1" x="0px" y="0px" viewBox="0 0 90 112.5" style="enable-background:new 0 0 90 90;" xml:space="preserve"><path d="M68.301758,7.99707c-4.563477-1.00293-9.578125,1.329102-12.481445,5.797852  c-2.238647,3.44751-3.731201,7.412964-4.725159,11.583923c-1.63208-3.617737-5.159119-6.344971-10.237732-7.771423  c-8.925781-2.507813-21.28418-0.310547-25.456055,6.955078c-3.463867,6.035156-0.374023,12.800781,3.324219,16.759766  c2.732117,2.924561,6.337463,5.167664,10.512024,6.640625h-3.804016c-0.552734,0-1,0.447266-1,1v4.881836c0,0.552734,0.447266,1,1,1  h2.347473l3.941589,26.535156c0.073242,0.490234,0.494141,0.853516,0.989258,0.853516h29.382813  c0.495117,0,0.916016-0.363281,0.989258-0.853516l3.941589-26.535156h2.347473c0.552734,0,1-0.447266,1-1v-4.881836  c0-0.552734-0.447266-1-1-1h-6.705139c2.564392-1.663574,4.988403-4.307922,7.244202-7.924805  c4.71875-7.567383,6.9375-16.229492,5.933594-23.169922C75.171875,12.203125,72.351563,8.886719,68.301758,7.99707z   M20.186523,39.957031c-3.232422-3.460938-5.97168-9.30957-3.050781-14.398438  c3.651367-6.362305,15.146484-8.282227,23.180664-6.025391c3.002563,0.84259,9.945068,3.601807,9.801086,10.99408  c-0.154053,1.071838-0.281555,2.14801-0.386658,3.226135c-1.579712,0.414673-3.047546,1.435974-4.015503,2.241089  c-0.67572-1.686584-1.596985-3.336914-2.837463-4.817017c0.809937-0.911865,2.626282-2.655212,5.436584-3.687256  c0.518555-0.19043,0.78418-0.764648,0.59375-1.283203c-0.19043-0.517578-0.765625-0.78418-1.283203-0.59375  c-3.095886,1.136902-5.144836,3.024048-6.151428,4.133301c-3.58667-3.278809-8.597961-4.65863-14.939392-4.054199  c-0.549805,0.051758-0.953125,0.540039-0.900391,1.089844c0.051758,0.548828,0.529297,0.963867,1.089844,0.900391  c6.076172-0.577148,10.769531,0.774414,13.943359,4.022461c0.343079,0.351074,0.659729,0.719666,0.956909,1.099609  c-2.604126-0.595825-6.7771-0.981873-11.316284,0.854492c-0.511719,0.207031-0.758789,0.790039-0.551758,1.301758  c0.157227,0.388672,0.53125,0.625,0.926758,0.625c0.125,0,0.251953-0.023438,0.375-0.073242  c5.701233-2.304382,10.889465-0.629883,12.174744-0.140564c0.915833,1.836304,1.476685,3.796509,1.812012,5.639282  c-1.941284-0.910217-5.402344-1.937622-10.826599-1.568054c-0.551758,0.038086-0.966797,0.515625-0.929688,1.066406  c0.039063,0.552734,0.530273,0.952148,1.066406,0.929688c6.763367-0.467712,10.099548,1.40625,11.025879,2.044739  c0.177429,1.924988,0.142334,3.539795,0.089844,4.478699h-4.906311C32.129028,47.76001,24.796326,44.890625,20.186523,39.957031z   M49.374023,47.962891H47.47937c0.106812-1.877075,0.132141-5.834045-1.062439-9.923828  c0.696594-0.651306,1.888489-1.597168,3.129822-2.111694C49.254272,40.06604,49.261536,44.162231,49.374023,47.962891z   M61.232422,80.233398H33.574219l-3.771118-25.388672H65.00354L61.232422,80.233398z M68.373047,49.962891v2.881836H26.433594  v-2.881836H40.73407c0.281433,0.005676,0.560486,0.017578,0.844055,0.017578c0.408203,0,0.819336-0.005859,1.231445-0.017578  h9.336914h0.004883H68.373047z M68.214844,38.979492c-3.374268,5.410461-7.049805,8.431335-10.92511,8.983398H53.18335  c0.074768-1.709778,0.329468-5.43689,1.184326-9.780518c0.512695-0.526978,2.785095-2.410889,9.227051-2.596436  c0.551758-0.016602,0.986328-0.476563,0.970703-1.029297c-0.015625-0.551758-0.458984-0.953125-1.029297-0.970703  c-4.216736,0.122192-6.884155,0.926697-8.534424,1.750305c0.558899-2.243286,1.285156-4.557434,2.232727-6.773193  c0.475098-0.449402,2.73053-2.26532,9.096619-3.352112c0.544922-0.092773,0.911133-0.609375,0.817383-1.15332  c-0.091797-0.543945-0.606445-0.911133-1.15332-0.817383c-3.239319,0.552551-5.512024,1.290649-7.101013,1.995239  c2.382507-4.141357,5.746155-7.526611,10.517029-8.750122c0.535156-0.137695,0.857422-0.682617,0.720703-1.216797  c-0.137695-0.536133-0.683594-0.859375-1.216797-0.720703C54.891418,18.144409,51.93988,37.473999,51.318481,45.497437  c-0.156616-10.236633,0.685425-22.153564,6.179565-30.612671c2.451172-3.776367,6.621094-5.757813,10.374023-4.93457  c3.250977,0.713867,5.435547,3.339844,5.995117,7.204102C74.804688,23.641602,72.691406,31.800781,68.214844,38.979492z"/></svg>