<svg xmlns="http://www.w3.org/2000/svg" xmlns:xlink="http://www.w3.org/1999/xlink" version="1.1" x="0px" y="0px" viewBox="0 0 90 112.5" style="enable-background:new 0 0 90 90;" xml:space="preserve"><path d="M41.837891,32.362305c-0.229492-0.744141-0.510742-1.459961-0.770508-2.108398  c-0.295898-0.790039-0.569336-1.390625-0.916992-2.008789c-0.365234-0.650391-0.77832-1.24707-1.226563-1.774414  c-1.005859-1.174805-2.195313-1.983398-3.429688-2.333984c-1.28418-0.380859-2.863281-0.28418-4.331055,0.265625  c-1.511719,0.560547-2.791016,1.529297-3.602539,2.726563c-0.851563,1.224609-1.244141,2.842773-1.076172,4.436523  c0.15918,1.575195,0.915039,3.045898,2.125977,4.140625c1.19043,1.078125,2.799805,1.753906,4.411133,1.854492  c0.163086,0.010742,0.322266,0.016602,0.482422,0.016602c0.613281,0,1.22168-0.083008,1.96875-0.262695  c0.741211-0.147461,1.615234-0.333984,2.455078-0.600586l1.226563-0.360352l1.110352-0.404297  c0.575195-0.191406,1.108398-0.416016,1.554688-0.610352c0.456055-0.199219,0.696289-0.702148,0.56543-1.180664  C42.234375,33.609375,42.050781,32.962891,41.837891,32.362305z M39.606445,34.061523l-1.074219,0.392578l-1.186523,0.34668  c-0.768555,0.243164-1.575195,0.416016-2.300781,0.560547c-0.789063,0.188477-1.300781,0.240234-1.894531,0.203125  c-1.171875-0.073242-2.336914-0.561523-3.198242-1.341797c-0.855469-0.773438-1.367188-1.761719-1.478516-2.862305  c-0.117188-1.112305,0.15625-2.269531,0.731445-3.094727c0.00293-0.00293,0.005859-0.006836,0.007813-0.010742  c0.571289-0.844727,1.536133-1.56543,2.648438-1.978516c0.65625-0.245117,1.329102-0.371094,1.956055-0.371094  c0.397461,0,0.775391,0.050781,1.119141,0.152344c0.865234,0.246094,1.71875,0.838867,2.46582,1.711914  c0.364258,0.426758,0.702148,0.916992,1.004883,1.455078c0.297852,0.530273,0.525391,1.03125,0.794922,1.751953  c0.25293,0.630859,0.517578,1.303711,0.737305,2.012695c0.099609,0.283203,0.19043,0.566406,0.275391,0.851563  C40.020508,33.916016,39.817383,33.991211,39.606445,34.061523z"/><path d="M64.035156,29.275391c6.069336-7.038086,3.775391-17.926758,3.674805-18.386719  c-0.116211-0.53418-0.641602-0.873047-1.175781-0.765625c-10.371094,2.107422-17.219727,5.932617-20.356445,11.369141  c-0.932861,1.617554-1.410339,3.175903-1.632202,4.555115c-0.084778-0.139038-0.164856-0.277039-0.25647-0.416443  c-0.582031-0.893555-1.229492-1.709961-1.924805-2.425781c-1.198242-1.234375-3.200195-2.827148-5.929688-3.40332  c-2.248047-0.474609-4.640625-0.19043-6.921875,0.828125c-2.25,1.012695-4.051758,2.587891-5.210938,4.553711  c-1.211914,2.054688-1.652344,4.526367-1.240234,6.950195c0.375977,2.328125,1.72168,4.585938,3.592773,6.035156  c1.804688,1.423828,4.05957,2.209961,6.333984,2.214844c1.366211,0.02832,2.692383-0.344727,3.154297-0.491211  c0.78418-0.207031,1.709961-0.466797,2.608398-0.813477l1.290039-0.466797l1.165039-0.507813  c0.024414-0.009766,0.049805-0.020508,0.074219-0.030273c0.297852,1.467773,0.537109,2.994141,0.728516,4.631836  c0.107666,0.944275,0.191895,1.918091,0.26593,2.920898h-19.48175c-0.552734,0-1,0.447266-1,1v4.881836c0,0.552734,0.447266,1,1,1  h2.34845l3.941589,26.535156c0.073242,0.490234,0.494141,0.853516,0.989258,0.853516h29.382813  c0.495117,0,0.916016-0.363281,0.989258-0.853516l3.941589-26.535156h2.347473c0.552734,0,1-0.447266,1-1v-4.881836  c0-0.552734-0.447266-1-1-1H50.384094c-0.178162-1.404724-0.373962-2.756104-0.607727-4.074219  c-0.423096-2.350647-0.948364-4.542847-1.585144-6.669739c0.361267,0.010864,0.736206,0.037903,1.088074,0.037903  C55.844727,34.920898,60.801758,33.026367,64.035156,29.275391z M58.592773,77.897461H30.93457l-3.771118-25.388672h35.200439  L58.592773,77.897461z M65.733398,47.626953v2.881836h-41.94043v-2.881836H65.733398z M48.367249,45.626953h-4.087463  c-0.078003-1.083069-0.16803-2.130981-0.284668-3.149414c-0.251953-2.164063-0.586914-4.143555-1.024414-6.050781  c-0.068359-0.297852-0.268555-0.547852-0.544922-0.679688c-0.275391-0.130859-0.597656-0.12793-0.871094,0.005859  c-0.359375,0.176758-0.725586,0.345703-1.124023,0.507813l-1.12793,0.494141l-1.25,0.450195  c-0.829102,0.319336-1.689453,0.560547-2.466797,0.766602c-0.413086,0.129883-1.495117,0.439453-2.578125,0.412109  c-1.84375-0.003906-3.660156-0.637695-5.12207-1.790039c-1.487305-1.152344-2.552734-2.939453-2.850586-4.787109  c-0.334961-1.966797,0.016602-3.958008,0.989258-5.607422c1.198242-2.03125,3.003906-3.158203,4.306641-3.744141  c1.316406-0.588867,3.37207-1.186523,5.689453-0.696289c2.237305,0.47168,3.904297,1.803711,4.908203,2.838867  c0.614258,0.632813,1.165039,1.327148,1.686523,2.12793c0.578125,0.878906,1.009766,1.788086,1.226563,2.275391  c0.333984,0.701172,0.681641,1.454102,0.982422,2.241211c0.152344,0.358398,0.293945,0.71875,0.427734,1.078125  c0.103516,0.279297,0.326172,0.498047,0.607422,0.59668c0.151367,0.052734,0.313477,0.070313,0.466797,0.045898  c-0.021484,0.014648-0.042969,0.029297-0.063477,0.043945c-0.026001,0.017578-0.042603,0.043274-0.066467,0.062866  c-0.021912,0.0177-0.039795,0.037476-0.060242,0.056946c-0.065857,0.063904-0.12146,0.132751-0.166626,0.210266  c-0.019592,0.032654-0.037109,0.064392-0.052917,0.099365c-0.03595,0.081543-0.057678,0.166016-0.070862,0.254456  c-0.004089,0.026978-0.01947,0.049133-0.021362,0.076843c-0.00061,0.009338,0.003906,0.017395,0.00354,0.026672  c-0.004944,0.117188,0.006287,0.23584,0.044312,0.352234c0.001587,0.004761,0.002869,0.009644,0.004456,0.014404  c0.000061,0.000122,0,0.000244,0.000061,0.000305c0.803345,2.456299,1.434937,4.989746,1.93103,7.743103  C48.020874,43.108948,48.201233,44.347717,48.367249,45.626953z M46.679077,30.486694  c-0.128845-0.434082-1.073303-3.999939,1.231079-7.994507c2.699219-4.678711,8.916016-8.193359,18.012695-10.196289  c0.392578,2.725586,1.035156,10.52832-3.402344,15.673828c-2.758972,3.199707-7.04834,4.85022-12.766541,4.937683  c2.891968-2.251282,5.585999-4.885193,8.010681-7.909363c2.427734-3.051758,2.838867-4.026367,1.998047-4.738281  C58.920898,19.541992,58.025391,20.108398,55.416992,23C52.73407,25.954346,49.799255,28.46936,46.679077,30.486694z"/></svg>